<mxfile host="app.diagrams.net" modified="2022-12-14T02:49:07.443Z" agent="5.0 (Windows NT 10.0; Win64; x64) AppleWebKit/537.36 (KHTML, like Gecko) Chrome/108.0.0.0 Safari/537.36 Edg/108.0.1462.46" etag="kJ8sv2LIlz9Tv984TNu0" version="18.0.2" type="github">
  <diagram id="xF6VCuB017G7wXj6120A" name="Page-1">
    <mxGraphModel dx="1209" dy="674" grid="1" gridSize="10" guides="1" tooltips="1" connect="1" arrows="1" fold="1" page="1" pageScale="1" pageWidth="850" pageHeight="1100" math="0" shadow="0">
      <root>
        <mxCell id="0" />
        <mxCell id="1" parent="0" />
        <mxCell id="vPkMWkJ3F8Gbizu4Jnf3-1" value="STORE ORDER MANAGEMENT SYSTEM" style="ellipse;whiteSpace=wrap;html=1;aspect=fixed;" vertex="1" parent="1">
          <mxGeometry x="340" y="240" width="140" height="140" as="geometry" />
        </mxCell>
        <mxCell id="vPkMWkJ3F8Gbizu4Jnf3-2" value="!!! Attacker !!!" style="shape=step;perimeter=stepPerimeter;whiteSpace=wrap;html=1;fixedSize=1;" vertex="1" parent="1">
          <mxGeometry x="100" y="50" width="120" height="80" as="geometry" />
        </mxCell>
        <mxCell id="vPkMWkJ3F8Gbizu4Jnf3-3" value="" style="endArrow=classic;html=1;rounded=0;exitX=1;exitY=0.5;exitDx=0;exitDy=0;entryX=0.26;entryY=0.043;entryDx=0;entryDy=0;entryPerimeter=0;startArrow=none;" edge="1" parent="1" target="vPkMWkJ3F8Gbizu4Jnf3-1">
          <mxGeometry width="50" height="50" relative="1" as="geometry">
            <mxPoint x="300" y="180" as="sourcePoint" />
            <mxPoint x="270" y="90" as="targetPoint" />
          </mxGeometry>
        </mxCell>
        <mxCell id="vPkMWkJ3F8Gbizu4Jnf3-5" value="" style="endArrow=none;html=1;rounded=0;exitX=1;exitY=0.5;exitDx=0;exitDy=0;" edge="1" parent="1" source="vPkMWkJ3F8Gbizu4Jnf3-2">
          <mxGeometry width="50" height="50" relative="1" as="geometry">
            <mxPoint x="220" y="90" as="sourcePoint" />
            <mxPoint x="300" y="180" as="targetPoint" />
            <Array as="points">
              <mxPoint x="300" y="180" />
            </Array>
          </mxGeometry>
        </mxCell>
        <mxCell id="vPkMWkJ3F8Gbizu4Jnf3-6" value="Data Integrity attack" style="text;html=1;strokeColor=none;fillColor=none;align=center;verticalAlign=middle;whiteSpace=wrap;rounded=0;" vertex="1" parent="1">
          <mxGeometry x="300" y="140" width="60" height="30" as="geometry" />
        </mxCell>
        <mxCell id="vPkMWkJ3F8Gbizu4Jnf3-7" value="Fake anomalious input in" style="rounded=0;whiteSpace=wrap;html=1;" vertex="1" parent="1">
          <mxGeometry x="90" y="380" width="120" height="60" as="geometry" />
        </mxCell>
        <mxCell id="vPkMWkJ3F8Gbizu4Jnf3-9" value="" style="endArrow=classic;html=1;rounded=0;exitX=1;exitY=0;exitDx=0;exitDy=0;" edge="1" parent="1" source="vPkMWkJ3F8Gbizu4Jnf3-7">
          <mxGeometry width="50" height="50" relative="1" as="geometry">
            <mxPoint x="400" y="340" as="sourcePoint" />
            <mxPoint x="340" y="330" as="targetPoint" />
          </mxGeometry>
        </mxCell>
        <mxCell id="vPkMWkJ3F8Gbizu4Jnf3-10" value="DENIAL of Service (DoS)" style="rounded=0;whiteSpace=wrap;html=1;" vertex="1" parent="1">
          <mxGeometry x="630" y="280" width="120" height="60" as="geometry" />
        </mxCell>
        <mxCell id="vPkMWkJ3F8Gbizu4Jnf3-11" value="" style="endArrow=classic;html=1;rounded=0;entryX=0;entryY=0.5;entryDx=0;entryDy=0;" edge="1" parent="1" source="vPkMWkJ3F8Gbizu4Jnf3-1" target="vPkMWkJ3F8Gbizu4Jnf3-10">
          <mxGeometry width="50" height="50" relative="1" as="geometry">
            <mxPoint x="480" y="360" as="sourcePoint" />
            <mxPoint x="550.7106781186548" y="310" as="targetPoint" />
          </mxGeometry>
        </mxCell>
        <mxCell id="vPkMWkJ3F8Gbizu4Jnf3-12" value="CVE 2022 44707 exploited" style="text;html=1;strokeColor=none;fillColor=none;align=center;verticalAlign=middle;whiteSpace=wrap;rounded=0;" vertex="1" parent="1">
          <mxGeometry x="510" y="260" width="70" height="60" as="geometry" />
        </mxCell>
        <mxCell id="vPkMWkJ3F8Gbizu4Jnf3-13" value="Data Availability attack" style="text;html=1;strokeColor=none;fillColor=none;align=center;verticalAlign=middle;whiteSpace=wrap;rounded=0;" vertex="1" parent="1">
          <mxGeometry x="220" y="160" width="60" height="50" as="geometry" />
        </mxCell>
      </root>
    </mxGraphModel>
  </diagram>
</mxfile>
